<?xml version="1.0" encoding="UTF-8"?><svg xmlns="http://www.w3.org/2000/svg" viewBox="0 0 720 720"><defs><style>.c{fill:#8cc63f;}</style></defs><g id="a"/><g id="b"><g><path class="c" d="M588.16,629.75H134.16c-6.9,0-12.5-5.6-12.5-12.5V281.17c0-3.82,1.75-7.44,4.75-9.81L352.25,92.94c4.54-3.59,10.96-3.59,15.5,0l228.16,180.25c3,2.37,4.75,5.98,4.75,9.81v334.25c0,6.9-5.6,12.5-12.5,12.5Zm-441.5-25h429V289.05L360,118.68l-213.34,168.54v317.53Z"/><path class="c" d="M66.35,347.25c-3.69,0-7.35-1.63-9.82-4.75-4.28-5.42-3.36-13.28,2.06-17.56l67.82-53.58c3.76-2.97,8.89-3.53,13.2-1.44,4.31,2.09,7.05,6.46,7.05,11.25v53.58c0,6.9-5.6,12.5-12.5,12.5s-12.5-5.6-12.5-12.5v-27.77l-47.57,37.58c-2.29,1.81-5.03,2.69-7.74,2.69Z"/><path class="c" d="M653.65,347.25c-2.71,0-5.45-.88-7.74-2.69l-65.5-51.75c-5.42-4.28-6.34-12.14-2.06-17.56,4.28-5.42,12.14-6.34,17.56-2.06l65.5,51.75c5.42,4.28,6.34,12.14,2.06,17.56-2.47,3.12-6.12,4.75-9.82,4.75Z"/></g></g></svg>