<?xml version="1.0" encoding="UTF-8"?><svg id="Layer_2" xmlns="http://www.w3.org/2000/svg" viewBox="0 0 168.42 168.42"><defs><style>.cls-1{stroke-miterlimit:10;}.cls-1,.cls-2{fill:none;stroke:#666;stroke-linecap:round;stroke-width:2px;}.cls-3{fill:#333;opacity:.6;}.cls-2{stroke-linejoin:round;}</style></defs><g id="Layer_1-2"><circle class="cls-3" cx="84.21" cy="84.21" r="84.21"/><g><line class="cls-1" x1="84.29" y1="34.69" x2="84.29" y2="47.63"/><line class="cls-1" x1="117.43" y1="48.43" x2="108.24" y2="57.62"/><line class="cls-1" x1="131.07" y1="81.64" x2="118.13" y2="81.64"/><line class="cls-1" x1="117.32" y1="114.77" x2="108.13" y2="105.58"/><line class="cls-1" x1="50.99" y1="114.66" x2="60.17" y2="105.47"/><line class="cls-1" x1="71.35" y1="118.3" x2="97.23" y2="118.3"/><line class="cls-1" x1="71.35" y1="126.26" x2="97.23" y2="126.26"/><line class="cls-1" x1="37.34" y1="81.47" x2="50.28" y2="81.47"/><line class="cls-1" x1="51.1" y1="48.32" x2="60.28" y2="57.51"/><path class="cls-2" d="M83.81,55.47c14.79-.2,26.79,12.13,26.3,26.91-.22,6.77-3.02,12.88-7.44,17.38-3.47,3.53-5.44,11.76-5.44,16.72v11.7c0,3.07-2.49,5.55-5.55,5.55h-15.11c-3.07,0-5.55-2.49-5.55-5.55v-11.78c0-4.91-1.89-13.12-5.33-16.61-4.62-4.7-7.48-11.16-7.48-18.28,0-14.26,11.43-25.84,25.59-26.03Z"/><line class="cls-1" x1="71.52" y1="110.34" x2="97.56" y2="110.34"/></g></g></svg>