<?xml version="1.0" encoding="UTF-8"?><svg id="Layer_2" xmlns="http://www.w3.org/2000/svg" viewBox="0 0 168.42 168.42"><defs><style>.cls-1{fill:#333;opacity:.6;}.cls-2{fill:none;stroke:#666;stroke-linecap:round;stroke-linejoin:round;stroke-width:2px;}</style></defs><g id="Layer_1-2"><circle class="cls-1" cx="84.21" cy="84.21" r="84.21"/><g><g><rect class="cls-2" x="102.74" y="53.09" width="7" height="12.36" rx="1.19" ry="1.19"/><rect class="cls-2" x="86.66" y="53.09" width="7" height="12.36" rx="1.19" ry="1.19"/><rect class="cls-2" x="70.44" y="53.09" width="7" height="12.36" rx="1.19" ry="1.19"/></g><g><rect class="cls-2" x="102.74" y="77.81" width="7" height="12.36" rx="1.19" ry="1.19"/><rect class="cls-2" x="86.52" y="77.81" width="7" height="12.36" rx="1.19" ry="1.19"/><rect class="cls-2" x="70.44" y="77.81" width="7" height="12.36" rx="1.19" ry="1.19"/></g><g><rect class="cls-2" x="102.74" y="102.52" width="7" height="12.36" rx="1.19" ry="1.19"/><rect class="cls-2" x="86.52" y="102.52" width="7" height="12.36" rx="1.19" ry="1.19"/><rect class="cls-2" x="70.44" y="102.52" width="7" height="12.36" rx="1.19" ry="1.19"/></g><line class="cls-2" x1="56.89" y1="72" x2="56.89" y2="96.27"/><line class="cls-2" x1="65.08" y1="96.42" x2="117.63" y2="96.42"/><line class="cls-2" x1="65.08" y1="71.7" x2="117.63" y2="71.7"/><line class="cls-2" x1="65.08" y1="46.99" x2="117.63" y2="46.99"/><line class="cls-2" x1="65.08" y1="121.13" x2="117.63" y2="121.13"/><polygon class="cls-2" points="117.63 128.43 50.78 128.43 50.78 39.99 62.92 39.99 117.63 39.99 117.63 128.43"/><line class="cls-2" x1="62.99" y1="39.99" x2="62.99" y2="128.13"/></g></g></svg>