<?xml version="1.0" encoding="UTF-8"?><svg id="Layer_2" xmlns="http://www.w3.org/2000/svg" viewBox="0 0 532.49 65.82"><defs><style>.cls-1{fill:#333;}.cls-2{fill:#8dc63f;}.cls-3{fill:#b3b3b3;}.cls-4{opacity:.6;}</style></defs><g id="button_shape" class="cls-4"><rect class="cls-1" x="0" y="0" width="532.49" height="65.82" rx="32.91" ry="32.91"/></g><g id="text" class="cls-4"><g><path class="cls-3" d="M273,39.24v-12.68h10.57c2.88,0,3.98,1.04,3.98,2.74v1.15c0,1.22-.59,1.82-1.33,2.11,.77,.2,1.5,.67,1.5,2.05v1.89c0,1.44-.9,2.74-4.11,2.74h-10.61Zm11.6-9.6c0-.61-.29-.79-1.03-.79h-7.63v2.67h7.63c.83,0,1.03-.22,1.03-.92v-.95Zm.18,5.13c0-.68-.34-.95-1.21-.95h-7.63v3.11h7.67c.79,0,1.17-.25,1.17-.9v-1.26Z"/><path class="cls-3" d="M290.8,39.24v-12.68h2.93v12.68h-2.93Z"/><path class="cls-3" d="M300.98,39.24c-2.61,0-4.16-.92-4.16-2.92v-6.59c0-2.25,1.55-3.17,4.16-3.17h10.64v2.29h-10.66c-.92,0-1.21,.34-1.21,.88v6.57c0,.49,.56,.63,1.21,.63h6.72c.65,0,1.19-.13,1.19-.59v-4.02h2.95v4.02c0,2.25-1.31,2.9-4.14,2.9h-6.7Z"/><path class="cls-3" d="M318.95,39.24c-2.61,0-4.16-.92-4.16-2.92v-6.59c0-2.25,1.55-3.17,4.16-3.17h10.64v2.29h-10.66c-.92,0-1.21,.34-1.21,.88v6.57c0,.49,.56,.63,1.21,.63h6.72c.65,0,1.19-.13,1.19-.59v-4.02h2.95v4.02c0,2.25-1.31,2.9-4.14,2.9h-6.7Z"/><path class="cls-3" d="M332.8,39.24v-12.68h13.36v2.29h-10.42v2.54h9.87v2.3h-9.87v3.24h10.42v2.3h-13.36Z"/><path class="cls-3" d="M360.89,39.24l-2.83-5.64h-6.05v5.64h-2.94v-12.68h11.02c2.95,0,4.09,1.24,4.09,3.06v.92c0,1.51-.72,2.72-2.99,3.02l2.84,5.67h-3.15Zm.34-9.65c0-.5-.4-.74-1.13-.74h-8.08v2.47h8.08c.77,0,1.13-.14,1.13-.76v-.97Z"/><path class="cls-3" d="M376.96,39.24v-12.68h10.57c2.88,0,3.98,1.04,3.98,2.74v1.15c0,1.22-.59,1.82-1.33,2.11,.77,.2,1.5,.67,1.5,2.05v1.89c0,1.44-.9,2.74-4.11,2.74h-10.61Zm11.6-9.6c0-.61-.29-.79-1.03-.79h-7.63v2.67h7.63c.83,0,1.03-.22,1.03-.92v-.95Zm.18,5.13c0-.68-.34-.95-1.21-.95h-7.63v3.11h7.67c.79,0,1.17-.25,1.17-.9v-1.26Z"/><path class="cls-3" d="M409.29,39.24l-6.14-9.65-6.27,9.65h-3.28l8.44-12.68h2.16l8.39,12.68h-3.31Z"/><path class="cls-3" d="M415.2,39.24v-2.3h11.27c.83,0,1.15-.14,1.15-.76v-1.82c0-.58-.34-.77-1.15-.77h-7.58c-2.97,0-4.11-1.24-4.11-3.08v-.86c0-1.84,1.13-3.08,4.11-3.08h10.96v2.29h-10.96c-.77,0-1.17,.2-1.17,.77v.9c0,.54,.34,.77,1.17,.77h7.58c2.97,0,4.11,1.24,4.11,3.08v1.76c0,1.84-1.13,3.1-4.11,3.1h-11.27Z"/><path class="cls-3" d="M444.5,39.24l-4.21-5.4h-3.89v5.4h-2.94v-12.68h2.94v4.97h3.82l4.2-4.97h3.48l-5.24,5.89,5.22,6.79h-3.37Z"/><path class="cls-3" d="M450.49,39.24v-12.68h13.36v2.29h-10.42v2.54h9.87v2.3h-9.87v3.24h10.42v2.3h-13.36Z"/><path class="cls-3" d="M472.93,39.24v-10.39h-6.54v-2.29h15.88v2.29h-6.39v10.39h-2.95Z"/><path class="cls-3" d="M485.26,39.24v-2.3h11.27c.83,0,1.15-.14,1.15-.76v-1.82c0-.58-.34-.77-1.15-.77h-7.58c-2.97,0-4.1-1.24-4.1-3.08v-.86c0-1.84,1.13-3.08,4.1-3.08h10.97v2.29h-10.97c-.77,0-1.17,.2-1.17,.77v.9c0,.54,.34,.77,1.17,.77h7.58c2.97,0,4.1,1.24,4.1,3.08v1.76c0,1.84-1.13,3.1-4.1,3.1h-11.27Z"/></g></g><g id="icon"><g><path id="Path_55" class="cls-2" d="M42.12,35.96h-.01l1.02,5.43h.02l-1.02-5.43Zm1.4-1.81v.07h10.13v-.07s-10.13,0-10.13,0Zm9.83,1.81l-.91,5.43h.01l.91-5.43h-.01Z"/><path id="Path_56" class="cls-2" d="M43.86,35.9v.07h9.48v-.07s-9.48,0-9.48,0Zm12.3-6.34l-.78,4.67h.03l.78-4.67h-.03Zm-15.23,0h-.05l.88,4.67h.05l-.88-4.67Z"/><path id="Path_57" class="cls-2" d="M52.11,43.14l-.78,4.67h.04l.78-4.67h-.04Zm2.3-13.58l-.77,4.6v.07s.02,0,.02,0v-.07s.78-4.6,.78-4.6h-.03Z"/><path id="Path_58" class="cls-2" d="M43.5,43.14h-.04l.88,4.67h.04l-.88-4.67Zm10.37,0l-.78,4.67h.04l.78-4.67h-.04Z"/><path id="Path_59" class="cls-2" d="M45.27,43.14h-.04l.88,4.67h.04l-.88-4.67Zm-1.38-7.17v-.07h-.03v.07s1.04,5.43,1.04,5.43h.02l-1.02-5.43Zm-.32-1.81l-.87-4.6h-.05l.87,4.6v.07h.07v-.07Z"/><path id="Path_60" class="cls-2" d="M68.42,28.19c-.16-.23-.43-.37-.71-.37h-5.23l3.55-8.8c.18-.45-.04-.95-.48-1.13s-.95,.04-1.13,.48l-3.81,9.45h-23.96l-3.81-9.45c-.19-.44-.7-.65-1.14-.46-.43,.18-.64,.67-.47,1.11l3.55,8.8h-5.05c-.48,0-.87,.39-.87,.87,0,.09,.02,.19,.05,.28l2.09,6.2c.01,.14,.06,.28,.13,.4l4.51,13.39c.12,.36,.45,.59,.83,.59h24.09c.37,0,.7-.23,.82-.58l2.25-6.26c.06-.09,.09-.2,.11-.31l4.82-13.42c.1-.27,.06-.56-.11-.8Zm-13.99,1.37l-.77,4.6v.07h-10.13v-.07s-.88-4.6-.88-4.6h11.78Zm-23.51,0h10.01l.88,4.66h-9.32l-1.57-4.66Zm2.16,6.41h9.04l1.02,5.43h-8.24l-1.83-5.43Zm3.99,11.84l-1.57-4.66h8l.88,4.66h-7.31Zm14.3,0h-5.26l-.88-4.66h6.92l-.77,4.66Zm-6.46-6.41l-1.02-5.43v-.07s9.48,0,9.48,0v.07s0,0,0,0l-.91,5.43h-7.55Zm15.02,6.41h-6.83l.78-4.66h7.72l-1.67,4.66Zm2.3-6.41h-8l.91-5.43h9.04l-1.95,5.43Zm2.58-7.17h-9.41l.78-4.66h10.3l-1.67,4.66Z"/></g></g></svg>