<?xml version="1.0" encoding="UTF-8"?><svg id="Layer_2" xmlns="http://www.w3.org/2000/svg" viewBox="0 0 532.49 65.82"><defs><style>.cls-1{fill:#333;}.cls-2{fill:#8dc63f;}.cls-3{fill:#b3b3b3;}.cls-4{opacity:.6;}</style></defs><g id="button_shape" class="cls-4"><rect class="cls-1" x="0" y="0" width="532.49" height="65.82" rx="32.91" ry="32.91"/></g><g id="text" class="cls-4"><g><path class="cls-3" d="M121.75,39.24c-2.95,0-4.07-1.24-4.07-3.06v-6.55c0-1.82,1.12-3.06,4.07-3.06h10.46v2.29h-10.46c-.74,0-1.13,.23-1.13,.74v6.61c0,.52,.4,.74,1.13,.74h10.46v2.3h-10.46Z"/><path class="cls-3" d="M139.15,39.24c-2.95,0-4.07-1.24-4.07-3.06v-6.55c0-1.82,1.12-3.06,4.07-3.06h8.59c2.95,0,4.07,1.24,4.07,3.06v6.55c0,1.82-1.12,3.06-4.07,3.06h-8.59Zm9.72-9.65c0-.5-.4-.74-1.13-.74h-8.59c-.74,0-1.13,.23-1.13,.74v6.61c0,.52,.4,.74,1.13,.74h8.59c.74,0,1.13-.22,1.13-.74v-6.61Z"/><path class="cls-3" d="M170.64,39.24l-13.2-9.24v9.24h-2.56v-12.68h2.54l12.08,8.68v-8.68h2.57v12.68h-1.44Z"/><path class="cls-3" d="M183.06,39.24l-8.46-12.68h3.33l6.27,9.63,6.14-9.63h3.26l-8.39,12.68h-2.14Z"/><path class="cls-3" d="M196.1,39.24v-12.68h13.36v2.29h-10.43v2.54h9.87v2.3h-9.87v3.24h10.43v2.3h-13.36Z"/><path class="cls-3" d="M224.19,39.24l-2.83-5.64h-6.05v5.64h-2.94v-12.68h11.02c2.95,0,4.09,1.24,4.09,3.06v.92c0,1.51-.72,2.72-2.99,3.02l2.84,5.67h-3.15Zm.34-9.65c0-.5-.4-.74-1.13-.74h-8.08v2.47h8.08c.77,0,1.13-.14,1.13-.76v-.97Z"/><path class="cls-3" d="M230.65,39.24v-2.3h11.27c.83,0,1.15-.14,1.15-.76v-1.82c0-.58-.34-.77-1.15-.77h-7.58c-2.97,0-4.1-1.24-4.1-3.08v-.86c0-1.84,1.13-3.08,4.1-3.08h10.97v2.29h-10.97c-.77,0-1.17,.2-1.17,.77v.9c0,.54,.34,.77,1.17,.77h7.58c2.97,0,4.1,1.24,4.1,3.08v1.76c0,1.84-1.13,3.1-4.1,3.1h-11.27Z"/><path class="cls-3" d="M248.96,39.24v-12.68h2.93v12.68h-2.93Z"/><path class="cls-3" d="M259.06,39.24c-2.95,0-4.07-1.24-4.07-3.06v-6.55c0-1.82,1.12-3.06,4.07-3.06h8.59c2.95,0,4.07,1.24,4.07,3.06v6.55c0,1.82-1.12,3.06-4.07,3.06h-8.59Zm9.72-9.65c0-.5-.4-.74-1.13-.74h-8.59c-.74,0-1.13,.23-1.13,.74v6.61c0,.52,.4,.74,1.13,.74h8.59c.74,0,1.13-.22,1.13-.74v-6.61Z"/><path class="cls-3" d="M290.55,39.24l-13.2-9.24v9.24h-2.56v-12.68h2.54l12.08,8.68v-8.68h2.57v12.68h-1.44Z"/><path class="cls-3" d="M309.16,39.24c-2.95,0-4.07-1.24-4.07-3.06v-6.55c0-1.82,1.12-3.06,4.07-3.06h8.59c2.95,0,4.07,1.24,4.07,3.06v6.55c0,1.82-1.12,3.06-4.07,3.06h-8.59Zm9.72-9.65c0-.5-.4-.74-1.13-.74h-8.59c-.74,0-1.13,.23-1.13,.74v6.61c0,.52,.4,.74,1.13,.74h8.59c.74,0,1.13-.22,1.13-.74v-6.61Z"/><path class="cls-3" d="M327.84,34.65v4.59h-2.94v-12.68h10.64c2.95,0,4.07,1.24,4.07,3.06v1.96c0,1.82-1.12,3.06-4.07,3.06h-7.71Zm8.84-4.97c0-.49-.29-.83-.86-.83h-7.98v3.49h7.99c.58,0,.85-.27,.85-.74v-1.93Z"/><path class="cls-3" d="M345.3,34.65v4.59h-2.94v-12.68h10.64c2.95,0,4.07,1.24,4.07,3.06v1.96c0,1.82-1.12,3.06-4.07,3.06h-7.71Zm8.84-4.97c0-.49-.29-.83-.86-.83h-7.98v3.49h7.99c.58,0,.85-.27,.85-.74v-1.93Z"/><path class="cls-3" d="M363.86,39.24c-2.95,0-4.07-1.24-4.07-3.06v-6.55c0-1.82,1.12-3.06,4.07-3.06h8.59c2.95,0,4.07,1.24,4.07,3.06v6.55c0,1.82-1.12,3.06-4.07,3.06h-8.59Zm9.72-9.65c0-.5-.4-.74-1.13-.74h-8.59c-.74,0-1.13,.23-1.13,.74v6.61c0,.52,.4,.74,1.13,.74h8.59c.74,0,1.13-.22,1.13-.74v-6.61Z"/><path class="cls-3" d="M391.41,39.24l-2.83-5.64h-6.05v5.64h-2.94v-12.68h11.02c2.95,0,4.09,1.24,4.09,3.06v.92c0,1.51-.72,2.72-2.99,3.02l2.84,5.67h-3.15Zm.34-9.65c0-.5-.4-.74-1.13-.74h-8.08v2.47h8.08c.77,0,1.13-.14,1.13-.76v-.97Z"/><path class="cls-3" d="M403.72,39.24v-10.39h-6.54v-2.29h15.88v2.29h-6.39v10.39h-2.95Z"/><path class="cls-3" d="M429.04,26.57h2.94v9.61c0,1.82-1.12,3.06-4.07,3.06h-8.08c-2.95,0-4.07-1.24-4.07-3.06v-9.61h2.93v9.63c0,.52,.4,.74,1.13,.74h8.08c.74,0,1.13-.22,1.13-.74v-9.63Z"/><path class="cls-3" d="M450.84,39.24l-13.2-9.24v9.24h-2.56v-12.68h2.54l12.08,8.68v-8.68h2.57v12.68h-1.44Z"/><path class="cls-3" d="M455.48,39.24v-12.68h2.93v12.68h-2.93Z"/><path class="cls-3" d="M467.66,39.24v-10.39h-6.54v-2.29h15.88v2.29h-6.39v10.39h-2.95Z"/><path class="cls-3" d="M487.25,39.24v-5.02l-8.1-7.65h3.75l5.82,5.53,5.8-5.53h3.71l-8.03,7.65v5.02h-2.94Z"/></g></g><g id="icon"><g><path id="Path_36" class="cls-2" d="M73.75,17.52H30.19c-.5,0-.9,.39-.9,.87v28.97c0,.48,.4,.87,.9,.87h43.56c.5,0,.9-.39,.9-.87V18.39c0-.48-.4-.87-.9-.87Zm-.9,28.97H31.09V19.27h41.77v27.23Z"/><path id="Path_37" class="cls-2" d="M58.79,35.91c.01-1.47-.91-2.8-2.33-3.35-1.14-.41-2.33-.67-3.54-.75v-5.3c.49,.07,.97,.17,1.45,.3,1.03,.36,1.82,1.18,2.1,2.21,.09,.32,.14,.65,.14,.98,.02,.25,.03,.51,.07,.78,.1,.47,.57,.78,1.06,.68,.45-.09,.76-.5,.72-.94-.03-.19-.04-.4-.06-.62,0-.49-.09-.97-.23-1.44-.46-1.57-1.7-2.82-3.3-3.32-.64-.18-1.29-.31-1.95-.39v-2.6c0-.48-.4-.87-.9-.87s-.9,.39-.9,.87v2.56c-.97,.06-1.92,.28-2.82,.63-1.23,.5-2.15,1.51-2.5,2.76-.33,1.17-.07,2.42,.69,3.37,1.07,1.16,2.6,1.82,4.2,1.83l.43,.05v5.6c-2.05-.3-3.22-.83-3.89-2.7-.17-.62-.23-1.27-.18-1.91,0-.17,0-.34,0-.5,0-.48-.4-.87-.9-.87h0c-.49,0-.9,.39-.9,.87,0,.16,0,.32,0,.47-.06,.85,.03,1.7,.27,2.51,1.08,3.04,3.44,3.6,5.57,3.88h.02v2.82c0,.48,.4,.87,.9,.87s.9-.39,.9-.87v-2.8c1.29,.02,2.57-.26,3.73-.81,1.51-.76,2.37-2.37,2.14-4.01Zm-7.66-4.31l-.21-.03c-1.34-.16-2.34-.34-3-1.17-.43-.53-.57-1.22-.38-1.86,.2-.72,.74-1.31,1.46-1.6,.68-.27,1.4-.44,2.13-.49v5.15Zm4.68,6.79c-.9,.42-1.88,.63-2.88,.61v-5.44c.97,.07,1.93,.28,2.84,.61,.78,.28,1.27,1.02,1.23,1.82,.19,.97-.3,1.94-1.2,2.4h0Z"/><path id="Path_38" class="cls-2" d="M47.58,44.26h-13.3c-.5,0-.9-.39-.9-.87V27.15c0-.48,.4-.87,.9-.87,.02,0,.03,0,.05,0,1.1,.01,2.16-.36,2.99-1.05,.78-.83,1.17-1.94,1.07-3.06,0-.48,.39-.88,.89-.88,0,0,0,0,0,0l8.43-.04h0c.5,0,.9,.39,.9,.87s-.4,.87-.9,.87h0l-7.57,.03c-.07,1.31-.64,2.54-1.6,3.47-.94,.83-2.12,1.35-3.38,1.48v14.56h12.4c.5,0,.9,.39,.9,.87s-.4,.87-.9,.87h.01Z"/><path id="Path_39" class="cls-2" d="M56.21,44.23c-.5,0-.9-.39-.9-.87s.4-.87,.9-.87l7.57-.03c.07-1.31,.64-2.54,1.6-3.47,.94-.83,2.12-1.35,3.38-1.48v-14.56h-12.4c-.5,0-.9-.39-.9-.87s.4-.87,.9-.87h13.3c.5,0,.9,.39,.9,.87v16.25c0,.48-.4,.87-.9,.87-.02,0-.03,0-.05,0-1.1-.01-2.16,.36-2.99,1.05-.78,.83-1.17,1.94-1.07,3.06,0,.48-.39,.88-.89,.88,0,0,0,0,0,0l-8.43,.04h0Z"/></g></g></svg>