<?xml version="1.0" encoding="UTF-8"?><svg id="Layer_2" xmlns="http://www.w3.org/2000/svg" viewBox="0 0 532.49 65.82"><defs><style>.cls-1{fill:#333;}.cls-2{fill:#8dc63f;}.cls-3{fill:#b3b3b3;}.cls-4{opacity:.6;}</style></defs><g id="button_shape" class="cls-4"><rect class="cls-1" x="0" y="0" width="532.49" height="65.82" rx="32.91" ry="32.91"/></g><g id="text" class="cls-4"><g><path class="cls-3" d="M164.62,39.24v-12.68h11.9c3.67,0,4.79,1.24,4.79,3.75v5.31c0,2.38-1.12,3.62-4.79,3.62h-11.9Zm13.74-8.93c0-1.24-.38-1.46-1.84-1.46h-8.97v8.08h8.97c1.46,0,1.84-.22,1.84-1.35v-5.28Z"/><path class="cls-3" d="M184.37,39.24v-12.68h13.36v2.29h-10.43v2.54h9.87v2.3h-9.87v3.24h10.43v2.3h-13.36Z"/><path class="cls-3" d="M200.91,39.24v-2.3h11.27c.83,0,1.15-.14,1.15-.76v-1.82c0-.58-.34-.77-1.15-.77h-7.58c-2.97,0-4.11-1.24-4.11-3.08v-.86c0-1.84,1.13-3.08,4.11-3.08h10.96v2.29h-10.96c-.77,0-1.17,.2-1.17,.77v.9c0,.54,.34,.77,1.17,.77h7.58c2.97,0,4.1,1.24,4.1,3.08v1.76c0,1.84-1.13,3.1-4.1,3.1h-11.27Z"/><path class="cls-3" d="M224.98,39.24v-10.39h-6.54v-2.29h15.88v2.29h-6.39v10.39h-2.95Z"/><path class="cls-3" d="M237.08,39.24v-12.68h2.93v12.68h-2.93Z"/><path class="cls-3" d="M258.93,39.24l-13.2-9.24v9.24h-2.56v-12.68h2.54l12.08,8.68v-8.68h2.57v12.68h-1.44Z"/><path class="cls-3" d="M278.56,39.24l-6.14-9.65-6.27,9.65h-3.28l8.44-12.68h2.16l8.39,12.68h-3.31Z"/><path class="cls-3" d="M287.23,39.24v-10.39h-6.54v-2.29h15.88v2.29h-6.39v10.39h-2.95Z"/><path class="cls-3" d="M299.34,39.24v-12.68h2.93v12.68h-2.93Z"/><path class="cls-3" d="M309.43,39.24c-2.95,0-4.07-1.24-4.07-3.06v-6.55c0-1.82,1.12-3.06,4.07-3.06h8.59c2.95,0,4.07,1.24,4.07,3.06v6.55c0,1.82-1.12,3.06-4.07,3.06h-8.59Zm9.72-9.65c0-.5-.4-.74-1.13-.74h-8.59c-.74,0-1.13,.23-1.13,.74v6.61c0,.52,.4,.74,1.13,.74h8.59c.74,0,1.13-.22,1.13-.74v-6.61Z"/><path class="cls-3" d="M340.93,39.24l-13.2-9.24v9.24h-2.56v-12.68h2.54l12.08,8.68v-8.68h2.57v12.68h-1.44Z"/><path class="cls-3" d="M355.72,39.24v-2.3h11.27c.83,0,1.15-.14,1.15-.76v-1.82c0-.58-.34-.77-1.15-.77h-7.58c-2.97,0-4.11-1.24-4.11-3.08v-.86c0-1.84,1.13-3.08,4.11-3.08h10.96v2.29h-10.96c-.77,0-1.17,.2-1.17,.77v.9c0,.54,.34,.77,1.17,.77h7.58c2.97,0,4.1,1.24,4.1,3.08v1.76c0,1.84-1.13,3.1-4.1,3.1h-11.27Z"/><path class="cls-3" d="M379.78,39.24v-10.39h-6.54v-2.29h15.88v2.29h-6.39v10.39h-2.95Z"/><path class="cls-3" d="M403.65,39.24l-2.83-5.64h-6.05v5.64h-2.94v-12.68h11.02c2.95,0,4.09,1.24,4.09,3.06v.92c0,1.51-.72,2.72-2.99,3.02l2.84,5.67h-3.15Zm.34-9.65c0-.5-.4-.74-1.13-.74h-8.08v2.47h8.08c.77,0,1.13-.14,1.13-.76v-.97Z"/><path class="cls-3" d="M424.86,39.24l-6.14-9.65-6.27,9.65h-3.28l8.44-12.68h2.16l8.39,12.68h-3.31Z"/><path class="cls-3" d="M433.53,39.24v-10.39h-6.54v-2.29h15.88v2.29h-6.39v10.39h-2.95Z"/><path class="cls-3" d="M445.59,39.24v-12.68h13.36v2.29h-10.42v2.54h9.87v2.3h-9.87v3.24h10.42v2.3h-13.36Z"/><path class="cls-3" d="M465.97,39.24c-2.61,0-4.16-.92-4.16-2.92v-6.59c0-2.25,1.55-3.17,4.16-3.17h10.64v2.29h-10.66c-.92,0-1.21,.34-1.21,.88v6.57c0,.49,.56,.63,1.21,.63h6.72c.65,0,1.19-.13,1.19-.59v-4.02h2.95v4.02c0,2.25-1.31,2.9-4.14,2.9h-6.7Z"/><path class="cls-3" d="M487.25,39.24v-5.02l-8.1-7.65h3.75l5.82,5.53,5.8-5.53h3.71l-8.03,7.65v5.02h-2.94Z"/></g></g><g id="icon"><g><path id="Path_30" class="cls-2" d="M44.93,32.51c-.22,.24-.53,.62-.77,.89l-.24,.28c-.36,.39-.75,.75-1.17,1.07-.61,.47-1.33,.79-2.09,.93-1.17,.14-2.35-.16-3.31-.82-.04-.03-.08-.05-.13-.07l.16,.1c.96,.66,2.14,.96,3.31,.82,.77-.14,1.48-.46,2.09-.93,.43-.32,.82-.67,1.17-1.07,.02-.03,.14-.16,.23-.28,.23-.27,.55-.65,.77-.89,.07-.08,.14-.16,.22-.23-.09,.05-.18,.12-.25,.2Zm1.07,1.86c-.04-.05-.09-.11-.13-.16h0l.1,.12c.19,.23,.38,.46,.6,.68-.2-.21-.39-.43-.57-.64h0Zm.69-1.89s-.03-.03-.05-.05l.08,.08-.04-.04Zm9.92,.04l-.25,.28c-.15,.17-.29,.34-.43,.5-.26,.33-.55,.64-.85,.93-.82,.8-1.88,1.34-3.03,1.53-1.48,.04-2.9-.55-3.88-1.63,.98,1.1,2.42,1.71,3.92,1.66,1.15-.19,2.21-.73,3.04-1.53,.31-.29,.59-.6,.85-.93,.14-.16,.28-.33,.43-.5l.43-.49,.02-.02c-.09,.05-.17,.12-.24,.19h0Zm1.89,2.78c-.28-.28-.54-.57-.79-.88l-.17-.2h0s.13,.16,.13,.16c.25,.31,.51,.6,.79,.88,.1,.1,.21,.2,.32,.3-.09-.08-.19-.17-.28-.26h0Zm7.56-.49c-.64,.42-1.37,.71-2.14,.85-1.41,.14-2.81-.34-3.82-1.3,1.02,.98,2.44,1.47,3.87,1.33,.77-.13,1.49-.42,2.14-.85,.08-.05,.15-.1,.23-.15-.1,.02-.19,.06-.27,.11h0Z"/><path id="Path_31" class="cls-2" d="M70.13,32.9l-3.38-12.43c-.1-.38-.46-.65-.87-.65h-3.24v-6.6c0-1.78-1.49-3.22-3.33-3.22h-15.2c-1.84,0-3.32,1.44-3.33,3.22v6.6h-2.92c-.4,0-.75,.26-.86,.64l-3.6,12.46c-.07,.25-.03,.51,.12,.73,.07,.1,.15,.2,.22,.29,.64,.81,1.39,1.52,2.23,2.12v16.46c0,.48,.4,.87,.9,.87h29.69c.5,0,.9-.39,.9-.87v-16.45c.34-.24,.66-.49,.97-.76,.41-.36,.79-.74,1.14-1.14l.03-.03c.32-.33,.69-.7,.54-1.23ZM42.58,13.22c0-.82,.68-1.48,1.53-1.48h15.2c.84,0,1.53,.66,1.53,1.48v14.31c0,.82-.68,1.48-1.53,1.48h-15.22c-.83,0-1.51-.65-1.51-1.46V13.22Zm8.12,38.42h-5.18v-9.89h5.18v9.89Zm7.19,0h-5.39v-9.89h5.39v9.89Zm7.76,0h-5.97v-10.76c0-.48-.4-.87-.9-.87h-14.16c-.5,0-.9,.39-.9,.87h0v10.76h-5.97v-14.62c1.01,.41,2.12,.54,3.2,.37,1.06-.19,2.05-.62,2.89-1.27,.52-.38,.99-.81,1.42-1.29,.04-.04,.1-.12,.29-.34l.28-.33,.03,.04h0c.04,.05,.09,.11,.13,.16,.18,.21,.36,.43,.56,.65l.02,.02h.01c.04,.05,.08,.09,.11,.13,1.36,1.58,3.42,2.44,5.54,2.32,1.54-.22,2.96-.92,4.06-1.99,.37-.35,.71-.72,1.03-1.11l.17-.2,.03,.04h0s.17,.19,.17,.19c.25,.31,.51,.6,.79,.88,.09,.09,.18,.18,.28,.26l.11,.1c1.41,1.33,3.36,1.96,5.31,1.72,.5-.08,.98-.21,1.45-.4v14.66Zm2.54-18.62c-.3,.35-.63,.68-.98,.99-.28,.25-.57,.47-.88,.69-.08,.05-.15,.1-.23,.15-.64,.42-1.37,.71-2.14,.85-1.43,.14-2.85-.35-3.87-1.33l-.04-.04c-.1-.09-.19-.18-.28-.26-.23-.22-.44-.48-.67-.75s-.46-.55-.72-.81c-.09-.09-.18-.17-.26-.25-.37-.32-.93-.3-1.27,.05,0,0,0,0,0,0l-.02,.02-.43,.49c-.15,.17-.29,.34-.43,.5-.26,.33-.55,.64-.85,.93-.82,.8-1.89,1.34-3.04,1.53-1.5,.04-2.94-.57-3.91-1.67l-.08-.08h0l-.08-.08-.09-.09-.03-.04c-.17-.18-.34-.38-.52-.59-.16-.19-.32-.38-.5-.58l-.08-.09-.06-.06-.08-.08c-.06-.06-.12-.12-.19-.17-.18-.16-.41-.24-.65-.22-.24,.01-.46,.11-.62,.28-.08,.07-.14,.15-.22,.23-.22,.24-.53,.62-.77,.89-.1,.12-.21,.25-.23,.28-.36,.39-.75,.74-1.17,1.06-.61,.47-1.33,.79-2.09,.93-1.17,.14-2.35-.16-3.31-.82l-.16-.1h0c-.75-.51-1.42-1.12-1.98-1.82l3.3-11.41h2.24v6.13c.09,1.65,1.45,2.97,3.15,3.05h15.47c1.82,0,3.3-1.43,3.3-3.2v-5.98h2.48c2.16,7.94,2.87,10.53,3.1,11.37-.04,.04-.06,.07-.08,.09Z"/><path id="Path_32" class="cls-2" d="M40.78,27.69c.08,1.65,1.44,2.98,3.15,3.05-1.7-.09-3.06-1.4-3.15-3.05Zm0,0c.08,1.65,1.44,2.98,3.15,3.05-1.7-.09-3.06-1.4-3.15-3.05Zm0,0c.08,1.65,1.44,2.98,3.15,3.05-1.7-.09-3.06-1.4-3.15-3.05Zm6.62,5.59c-.17-.2-.34-.41-.53-.61,.18,.19,.34,.39,.5,.58,.17,.21,.34,.41,.52,.59l.03,.04c-.18-.18-.34-.38-.52-.59Zm16.81,4.1c-1.95,.24-3.91-.39-5.31-1.72,1.41,1.35,3.39,2,5.36,1.76,.48-.08,.95-.2,1.4-.38v-.05c-.46,.19-.95,.32-1.44,.4h0Zm-6.7-3.19l-.17,.2c-.31,.39-.66,.77-1.03,1.11-1.09,1.07-2.52,1.77-4.06,1.98-2.12,.13-4.18-.73-5.54-2.32,1.25,1.43,3.05,2.29,4.98,2.39,.2,0,.4-.01,.6-.03,1.54-.22,2.96-.92,4.06-1.98,.37-.35,.71-.72,1.03-1.11,.06-.07,.11-.13,.17-.2l-.03-.04Zm-10.11-.9c-.17-.2-.34-.41-.53-.61,.18,.19,.34,.39,.5,.58,.17,.21,.34,.41,.52,.59l.03,.04c-.17-.18-.34-.38-.52-.59h0Zm-1.57,.9l-.28,.33c-.18,.22-.25,.3-.29,.34-.43,.47-.91,.9-1.42,1.29-.84,.64-1.83,1.08-2.88,1.27-1.08,.16-2.19,.04-3.2-.37v.02c1.02,.42,2.14,.55,3.24,.39,1.05-.19,2.04-.62,2.88-1.27,.52-.38,.99-.81,1.42-1.29,.04-.04,.1-.12,.29-.34l.28-.33-.04-.04Zm-5.05-6.48c.08,1.65,1.44,2.98,3.15,3.05-1.7-.09-3.06-1.41-3.15-3.06h0Z"/><path id="Path_33" class="cls-2" d="M42.58,27.53v.02c0,.81,.68,1.46,1.51,1.46h.02c-.84,0-1.53-.66-1.53-1.48Z"/><path id="Path_34" class="cls-2" d="M59.61,21.52c0,.48-.4,.87-.9,.87h-.83v1.64c0,.48-.4,.87-.9,.87s-.9-.39-.9-.87v-1.64h-2.63c-.5,0-.9-.39-.9-.87v-4.88c0-.48,.4-.87,.9-.87s.9,.39,.9,.87v4h1.72v-4c0-.48,.4-.87,.9-.87s.9,.39,.9,.87v4h.83c.5,0,.9,.39,.9,.87,0,0,0,0,0,0Z"/><path id="Path_35" class="cls-2" d="M52.21,24.03c0,.48-.4,.87-.9,.87h-5.39c-.07,.02-.14,.03-.21,.03h-.05c-.48,0-.87-.36-.9-.82-.06-.75,.16-1.5,.62-2.11,.26-.31,.59-.57,.95-.76,.46-.28,.93-.53,1.41-.76,.31-.15,.6-.29,.98-.51,.75-.43,.88-.61,.89-.65,.11-.22,.15-.47,.11-.71-.09-.42-.36-.78-.74-.99-.71-.47-1.68-.3-2.16,.39-.25,.35-.33,.78-.23,1.2,.02,.48-.36,.89-.86,.91-.5,.02-.92-.35-.94-.83,0-.02,0-.04,0-.05-.22-1.77,1.08-3.38,2.91-3.59,.78-.09,1.58,.09,2.24,.51,.83,.48,1.4,1.29,1.56,2.21,.1,.62-.01,1.25-.31,1.8-.38,.57-.92,1.02-1.55,1.3-.43,.25-.77,.41-1.09,.57-.43,.2-.85,.43-1.26,.67-.4,.24-.44,.3-.49,.35-.02,.03-.05,.06-.07,.09h4.56c.5,0,.9,.39,.9,.87h0Z"/></g></g></svg>