<?xml version="1.0" encoding="UTF-8"?><svg id="Layer_2" xmlns="http://www.w3.org/2000/svg" viewBox="0 0 532.49 65.82"><defs><style>.cls-1{fill:#333;}.cls-2{fill:#8dc63f;}.cls-3{fill:#b3b3b3;}.cls-4{opacity:.6;}</style></defs><g id="button_shape" class="cls-4"><rect class="cls-1" x="0" y="0" width="532.49" height="65.82" rx="32.91" ry="32.91"/></g><g id="text" class="cls-4"><g><path class="cls-3" d="M238.33,39.24v-7.99l-5.94,7.99h-2.41l-5.98-7.98v7.98h-2.72v-12.68h2.74l7.29,9.81,7.24-9.81h2.5v12.68h-2.72Z"/><path class="cls-3" d="M248.21,39.24c-2.95,0-4.07-1.24-4.07-3.06v-6.55c0-1.82,1.12-3.06,4.07-3.06h8.59c2.95,0,4.07,1.24,4.07,3.06v6.55c0,1.82-1.12,3.06-4.07,3.06h-8.59Zm9.72-9.65c0-.5-.4-.74-1.13-.74h-8.59c-.74,0-1.13,.23-1.13,.74v6.61c0,.52,.4,.74,1.13,.74h8.59c.74,0,1.13-.22,1.13-.74v-6.61Z"/><path class="cls-3" d="M275.77,39.24l-2.83-5.64h-6.05v5.64h-2.93v-12.68h11.02c2.95,0,4.09,1.24,4.09,3.06v.92c0,1.51-.72,2.72-2.99,3.02l2.84,5.67h-3.15Zm.34-9.65c0-.5-.4-.74-1.13-.74h-8.08v2.47h8.08c.77,0,1.13-.14,1.13-.76v-.97Z"/><path class="cls-3" d="M281.93,39.24v-12.68h13.36v2.29h-10.42v2.54h9.87v2.3h-9.87v3.24h10.42v2.3h-13.36Z"/><path class="cls-3" d="M311.11,34.22v5.02h-2.93v-12.68h13.36v2.29h-10.42v3.08h9.69v2.29h-9.69Z"/><path class="cls-3" d="M328.09,39.24c-2.95,0-4.07-1.24-4.07-3.06v-6.55c0-1.82,1.12-3.06,4.07-3.06h8.59c2.95,0,4.07,1.24,4.07,3.06v6.55c0,1.82-1.12,3.06-4.07,3.06h-8.59Zm9.72-9.65c0-.5-.4-.74-1.13-.74h-8.59c-.74,0-1.13,.23-1.13,.74v6.61c0,.52,.4,.74,1.13,.74h8.59c.74,0,1.13-.22,1.13-.74v-6.61Z"/><path class="cls-3" d="M347.82,39.24c-2.95,0-4.07-1.24-4.07-3.06v-6.55c0-1.82,1.12-3.06,4.07-3.06h8.59c2.95,0,4.07,1.24,4.07,3.06v6.55c0,1.82-1.12,3.06-4.07,3.06h-8.59Zm9.72-9.65c0-.5-.4-.74-1.13-.74h-8.59c-.74,0-1.13,.23-1.13,.74v6.61c0,.52,.4,.74,1.13,.74h8.59c.74,0,1.13-.22,1.13-.74v-6.61Z"/><path class="cls-3" d="M369.66,39.24v-10.39h-6.54v-2.29h15.88v2.29h-6.39v10.39h-2.95Z"/><path class="cls-3" d="M397.24,39.24v-10.39h-6.54v-2.29h15.88v2.29h-6.39v10.39h-2.95Z"/><path class="cls-3" d="M421.1,39.24l-2.83-5.64h-6.05v5.64h-2.94v-12.68h11.02c2.95,0,4.09,1.24,4.09,3.06v.92c0,1.51-.72,2.72-2.99,3.02l2.84,5.67h-3.15Zm.34-9.65c0-.5-.4-.74-1.13-.74h-8.08v2.47h8.08c.77,0,1.13-.14,1.13-.76v-.97Z"/><path class="cls-3" d="M442.31,39.24l-6.14-9.65-6.27,9.65h-3.28l8.45-12.68h2.16l8.39,12.68h-3.31Z"/><path class="cls-3" d="M451.07,34.22v5.02h-2.93v-12.68h13.36v2.29h-10.42v3.08h9.69v2.29h-9.69Z"/><path class="cls-3" d="M466.98,34.22v5.02h-2.93v-12.68h13.36v2.29h-10.42v3.08h9.69v2.29h-9.69Z"/><path class="cls-3" d="M480,39.24v-12.68h2.93v12.68h-2.93Z"/><path class="cls-3" d="M490.1,39.24c-2.95,0-4.07-1.24-4.07-3.06v-6.55c0-1.82,1.12-3.06,4.07-3.06h10.46v2.29h-10.46c-.74,0-1.13,.23-1.13,.74v6.61c0,.52,.4,.74,1.13,.74h10.46v2.3h-10.46Z"/></g></g><g id="icon"><g><path id="Path_48" class="cls-2" d="M40.28,45.89c-2.24-.03-4.23-1.42-5.04-3.5-.14-.34-.44-1.81-.68-2.98-.13-.67-.25-1.29-.33-1.76-.15-.88-.2-1.11,0-1.43,.15-.24,.4-.39,.68-.41h0l9.24-.6c.44-.03,.83,.28,.91,.71,.05,.29,.11,.58,.17,.89,.38,1.93,.82,4.11-.01,6.07-.75,1.81-2.52,2.99-4.48,2.99-.16,.02-.32,.02-.48,.02h0Zm-3.43-4.16c.58,1.54,2.1,2.51,3.74,2.4,1.65-.15,2.51-.69,3.03-1.93,.62-1.46,.26-3.29-.09-5.05l-.03-.16-7.54,.49c.25,1.36,.76,3.9,.89,4.26Z"/><path id="Path_49" class="cls-2" d="M34.49,34.09c-.42,0-.78-.3-.85-.71-.88-4.6-1.98-10.32-.5-15.5,.42-1.48,1.77-4.98,5.15-5.56,3.31-.57,6.08,2.38,7.01,5.44,.85,2.82,.41,5.57-.02,8.24-.1,.64-.21,1.29-.29,1.93-.18,1.54-.22,3.09-.12,4.64,.02,.47-.34,.87-.81,.9l-9.5,.61h-.06Zm4.61-20.1c-.18,0-.35,.02-.53,.04-2.4,.41-3.44,3.16-3.77,4.33-1.29,4.51-.42,9.66,.4,13.94l7.89-.51c-.06-1.36,0-2.73,.16-4.08,.09-.66,.2-1.33,.3-1.98,.42-2.58,.81-5.02,.07-7.45-.57-1.87-2.3-4.28-4.52-4.28h0Z"/><path id="Path_50" class="cls-2" d="M54.65,56.19c-.4,0-.79-.05-1.18-.14-1.94-.26-3.54-1.67-4.03-3.56-.56-2.05,.17-4.16,.81-6.02,.1-.3,.2-.58,.29-.86,.14-.42,.57-.67,1-.58l9.08,1.85h0c.28,.06,.51,.24,.62,.5,.15,.34,.08,.57-.19,1.42-.15,.46-.35,1.06-.57,1.7-.39,1.13-.89,2.55-1.08,2.86-.97,1.73-2.78,2.81-4.76,2.84h0Zm-2.7-9.31l-.05,.15c-.59,1.7-1.2,3.46-.78,4.99,.35,1.3,1.12,1.95,2.74,2.33,1.61,.34,3.25-.42,4.04-1.87,.17-.34,1.03-2.78,1.46-4.1l-7.4-1.51h0Z"/><path id="Path_51" class="cls-2" d="M61.39,45.24c-.06,0-.12,0-.17-.02l-9.33-1.9c-.46-.09-.76-.54-.68-1,.3-1.52,.48-3.06,.51-4.62,0-.64-.01-1.31-.03-1.95-.06-2.7-.13-5.49,1.1-8.16,1.34-2.91,4.48-5.45,7.69-4.44,3.27,1.04,4.13,4.69,4.34,6.21,.76,5.33-1.11,10.85-2.61,15.29-.12,.35-.45,.59-.82,.59h0Zm-8.33-3.46l7.75,1.58c1.39-4.12,2.95-9.11,2.29-13.75-.17-1.2-.82-4.06-3.14-4.8-2.39-.76-4.7,1.6-5.58,3.51-1.06,2.31-1,4.78-.94,7.4,.02,.66,.03,1.34,.03,2-.02,1.37-.16,2.73-.4,4.07h0Z"/></g></g></svg>