<?xml version="1.0" encoding="UTF-8"?><svg id="Layer_2" xmlns="http://www.w3.org/2000/svg" viewBox="0 0 532.49 65.82"><defs><style>.cls-1{fill:#333;}.cls-2{fill:#8dc63f;}.cls-3{fill:#b3b3b3;}.cls-4{opacity:.6;}</style></defs><g id="button_shape" class="cls-4"><rect class="cls-1" x="0" y="0" width="532.49" height="65.82" rx="32.91" ry="32.91"/></g><g id="text" class="cls-4"><g><path class="cls-3" d="M245.56,39.24v-7.99l-5.94,7.99h-2.41l-5.98-7.98v7.98h-2.72v-12.68h2.74l7.29,9.81,7.24-9.81h2.5v12.68h-2.72Z"/><path class="cls-3" d="M255.45,39.24c-2.95,0-4.07-1.24-4.07-3.06v-6.55c0-1.82,1.12-3.06,4.07-3.06h8.59c2.95,0,4.07,1.24,4.07,3.06v6.55c0,1.82-1.12,3.06-4.07,3.06h-8.59Zm9.72-9.65c0-.5-.4-.74-1.13-.74h-8.59c-.74,0-1.13,.23-1.13,.74v6.61c0,.52,.4,.74,1.13,.74h8.59c.74,0,1.13-.22,1.13-.74v-6.61Z"/><path class="cls-3" d="M283,39.24l-2.83-5.64h-6.05v5.64h-2.94v-12.68h11.02c2.95,0,4.09,1.24,4.09,3.06v.92c0,1.51-.72,2.72-2.99,3.03l2.84,5.67h-3.15Zm.34-9.65c0-.5-.4-.74-1.13-.74h-8.08v2.47h8.08c.77,0,1.13-.14,1.13-.76v-.97Z"/><path class="cls-3" d="M289.17,39.24v-12.68h13.36v2.29h-10.42v2.54h9.87v2.3h-9.87v3.24h10.42v2.3h-13.36Z"/><path class="cls-3" d="M328,39.24v-5.55h-9.65v5.55h-2.94v-12.68h2.94v4.83h9.65v-4.83h2.95v12.68h-2.95Z"/><path class="cls-3" d="M338.09,39.24c-2.95,0-4.07-1.24-4.07-3.06v-6.55c0-1.82,1.12-3.06,4.07-3.06h8.59c2.95,0,4.07,1.24,4.07,3.06v6.55c0,1.82-1.12,3.06-4.07,3.06h-8.59Zm9.72-9.65c0-.5-.4-.74-1.13-.74h-8.59c-.74,0-1.13,.23-1.13,.74v6.61c0,.52,.4,.74,1.13,.74h8.59c.74,0,1.13-.22,1.13-.74v-6.61Z"/><path class="cls-3" d="M367.07,26.57h2.94v9.61c0,1.82-1.12,3.06-4.07,3.06h-8.08c-2.95,0-4.07-1.24-4.07-3.06v-9.61h2.93v9.63c0,.52,.4,.74,1.13,.74h8.08c.74,0,1.13-.22,1.13-.74v-9.63Z"/><path class="cls-3" d="M373.34,39.24v-2.3h11.27c.83,0,1.15-.14,1.15-.76v-1.82c0-.58-.34-.77-1.15-.77h-7.58c-2.97,0-4.1-1.24-4.1-3.08v-.86c0-1.84,1.13-3.08,4.1-3.08h10.97v2.29h-10.97c-.77,0-1.17,.2-1.17,.77v.9c0,.54,.34,.77,1.17,.77h7.58c2.97,0,4.1,1.24,4.1,3.08v1.76c0,1.84-1.13,3.1-4.1,3.1h-11.27Z"/><path class="cls-3" d="M391.61,39.24v-12.68h13.36v2.29h-10.43v2.54h9.87v2.3h-9.87v3.24h10.43v2.3h-13.36Z"/><path class="cls-3" d="M420.47,39.24v-5.55h-9.65v5.55h-2.94v-12.68h2.94v4.83h9.65v-4.83h2.95v12.68h-2.95Z"/><path class="cls-3" d="M430.57,39.24c-2.95,0-4.07-1.24-4.07-3.06v-6.55c0-1.82,1.12-3.06,4.07-3.06h8.59c2.95,0,4.07,1.24,4.07,3.06v6.55c0,1.82-1.12,3.06-4.07,3.06h-8.59Zm9.72-9.65c0-.5-.4-.74-1.13-.74h-8.59c-.74,0-1.13,.23-1.13,.74v6.61c0,.52,.4,.74,1.13,.74h8.59c.74,0,1.13-.22,1.13-.74v-6.61Z"/><path class="cls-3" d="M446.3,39.24v-12.68h2.97v10.37h10.03v2.3h-13Z"/><path class="cls-3" d="M462.04,39.24v-12.68h11.9c3.67,0,4.79,1.24,4.79,3.75v5.31c0,2.38-1.12,3.62-4.79,3.62h-11.9Zm13.74-8.93c0-1.24-.38-1.46-1.84-1.46h-8.97v8.08h8.97c1.46,0,1.84-.22,1.84-1.35v-5.28Z"/><path class="cls-3" d="M482.07,39.24v-2.3h11.27c.83,0,1.15-.14,1.15-.76v-1.82c0-.58-.34-.77-1.15-.77h-7.58c-2.97,0-4.11-1.24-4.11-3.08v-.86c0-1.84,1.13-3.08,4.11-3.08h10.96v2.29h-10.96c-.77,0-1.17,.2-1.17,.77v.9c0,.54,.34,.77,1.17,.77h7.58c2.97,0,4.1,1.24,4.1,3.08v1.76c0,1.84-1.13,3.1-4.1,3.1h-11.27Z"/></g></g><g id="icon"><path id="Path_54" class="cls-2" d="M73.46,30.42l-4.71-3.6-16.4-12.56c-.33-.25-.79-.25-1.11,0l-16.24,12.42-4.88,3.73c-.4,.28-.49,.83-.2,1.22s.86,.47,1.26,.19c.02-.01,.04-.03,.05-.04l3.42-2.61v21.6c0,.48,.4,.87,.9,.87h32.64c.5,0,.9-.39,.9-.87h0V29.29l3.25,2.49c.4,.28,.96,.2,1.26-.19,.28-.37,.22-.88-.14-1.18h0Zm-15.51,19.48h-12.15v-15.67h12.15v15.67Zm9.34,0h-7.55v-16.54c0-.48-.4-.87-.9-.87h-13.95c-.5,0-.9,.39-.9,.87h0v16.54h-7.55V27.79l15.34-11.74,15.5,11.86v21.98Z"/></g></svg>