<?xml version="1.0" encoding="UTF-8"?><svg id="Layer_2" xmlns="http://www.w3.org/2000/svg" viewBox="0 0 532.49 65.82"><defs><style>.cls-1{fill:#333;}.cls-2{fill:#8dc63f;}.cls-3{fill:#b3b3b3;}.cls-4{opacity:.6;}</style></defs><g id="button_shape" class="cls-4"><rect class="cls-1" x="0" y="0" width="532.49" height="65.82" rx="32.91" ry="32.91"/></g><g id="text" class="cls-4"><g><path class="cls-3" d="M114.31,39.24v-2.3h11.27c.83,0,1.15-.14,1.15-.76v-1.82c0-.58-.34-.77-1.15-.77h-7.58c-2.97,0-4.11-1.24-4.11-3.08v-.86c0-1.84,1.13-3.08,4.11-3.08h10.96v2.29h-10.96c-.77,0-1.17,.2-1.17,.77v.9c0,.54,.34,.77,1.17,.77h7.58c2.97,0,4.11,1.24,4.11,3.08v1.76c0,1.84-1.13,3.1-4.11,3.1h-11.27Z"/><path class="cls-3" d="M138.37,39.24v-10.39h-6.54v-2.29h15.88v2.29h-6.39v10.39h-2.95Z"/><path class="cls-3" d="M162.24,39.24l-2.83-5.64h-6.05v5.64h-2.94v-12.68h11.02c2.95,0,4.09,1.24,4.09,3.06v.92c0,1.51-.72,2.72-2.99,3.03l2.84,5.67h-3.15Zm.34-9.65c0-.5-.4-.74-1.13-.74h-8.08v2.47h8.08c.77,0,1.13-.14,1.13-.76v-.97Z"/><path class="cls-3" d="M183.44,39.24l-6.14-9.65-6.27,9.65h-3.28l8.44-12.68h2.16l8.39,12.68h-3.31Z"/><path class="cls-3" d="M192.11,39.24v-10.39h-6.54v-2.29h15.88v2.29h-6.39v10.39h-2.95Z"/><path class="cls-3" d="M204.17,39.24v-12.68h13.36v2.29h-10.42v2.54h9.87v2.3h-9.87v3.24h10.42v2.3h-13.36Z"/><path class="cls-3" d="M224.55,39.24c-2.61,0-4.16-.92-4.16-2.92v-6.59c0-2.25,1.55-3.17,4.16-3.17h10.64v2.29h-10.66c-.92,0-1.21,.34-1.21,.88v6.57c0,.49,.56,.63,1.21,.63h6.72c.65,0,1.19-.13,1.19-.59v-4.01h2.95v4.01c0,2.25-1.31,2.9-4.14,2.9h-6.7Z"/><path class="cls-3" d="M238.45,39.24v-12.68h2.93v12.68h-2.93Z"/><path class="cls-3" d="M244.32,39.24v-2l12.26-8.16h-12.26v-2.52h17.45v1.98l-12.33,8.17h12.33v2.52h-17.45Z"/><path class="cls-3" d="M264.61,39.24v-12.68h13.36v2.29h-10.42v2.54h9.87v2.3h-9.87v3.24h10.42v2.3h-13.36Z"/><path class="cls-3" d="M306.24,39.24l-4.2-9.06-4.34,9.06h-2.14l-5.89-12.68h2.83l4.16,9.06,4.27-9.06h2.2l4.2,9.06,4.21-9.06h2.84l-5.92,12.68h-2.21Z"/><path class="cls-3" d="M316.95,39.24v-12.68h2.93v12.68h-2.93Z"/><path class="cls-3" d="M329.13,39.24v-10.39h-6.54v-2.29h15.88v2.29h-6.39v10.39h-2.95Z"/><path class="cls-3" d="M353.78,39.24v-5.55h-9.65v5.55h-2.94v-12.68h2.94v4.83h9.65v-4.83h2.95v12.68h-2.95Z"/><path class="cls-3" d="M386.97,39.24v-7.99l-5.94,7.99h-2.41l-5.98-7.98v7.98h-2.72v-12.68h2.74l7.29,9.81,7.24-9.81h2.5v12.68h-2.72Z"/><path class="cls-3" d="M396.86,39.24c-2.95,0-4.07-1.24-4.07-3.06v-6.55c0-1.82,1.12-3.06,4.07-3.06h8.59c2.95,0,4.07,1.24,4.07,3.06v6.55c0,1.82-1.12,3.06-4.07,3.06h-8.59Zm9.72-9.65c0-.5-.4-.74-1.13-.74h-8.59c-.74,0-1.13,.23-1.13,.74v6.61c0,.52,.4,.74,1.13,.74h8.59c.74,0,1.13-.22,1.13-.74v-6.61Z"/><path class="cls-3" d="M428.35,39.24l-13.2-9.24v9.24h-2.56v-12.68h2.54l12.08,8.68v-8.68h2.57v12.68h-1.44Z"/><path class="cls-3" d="M433.17,39.24v-2.3h11.27c.83,0,1.15-.14,1.15-.76v-1.82c0-.58-.34-.77-1.15-.77h-7.58c-2.97,0-4.11-1.24-4.11-3.08v-.86c0-1.84,1.13-3.08,4.11-3.08h10.96v2.29h-10.96c-.77,0-1.17,.2-1.17,.77v.9c0,.54,.34,.77,1.17,.77h7.58c2.97,0,4.11,1.24,4.11,3.08v1.76c0,1.84-1.13,3.1-4.11,3.1h-11.27Z"/><path class="cls-3" d="M457.23,39.24v-10.39h-6.54v-2.29h15.88v2.29h-6.39v10.39h-2.95Z"/><path class="cls-3" d="M469.29,39.24v-12.68h13.36v2.29h-10.42v2.54h9.87v2.3h-9.87v3.24h10.42v2.3h-13.36Z"/><path class="cls-3" d="M497.38,39.24l-2.83-5.64h-6.05v5.64h-2.93v-12.68h11.02c2.95,0,4.09,1.24,4.09,3.06v.92c0,1.51-.72,2.72-2.99,3.03l2.84,5.67h-3.15Zm.34-9.65c0-.5-.4-.74-1.13-.74h-8.08v2.47h8.08c.77,0,1.13-.14,1.13-.76v-.97Z"/></g></g><g id="icon"><g><path id="Path_61" class="cls-2" d="M63.87,55.21h-30.32c-.51,0-.93-.42-.93-.93V12.2c0-.51,.42-.93,.93-.93h30.32c.51,0,.93,.42,.93,.93V54.28c0,.51-.42,.93-.93,.93h0Zm-29.39-1.86h28.46V13.12h-28.46V53.35Z"/><path id="Path_62" class="cls-2" d="M58.34,19.51h-19.22c-.51,.02-.94-.38-.96-.9s.38-.94,.9-.96c.02,0,.04,0,.06,0h19.22c.51,.02,.91,.45,.9,.96-.02,.49-.41,.88-.9,.9Z"/><path id="Path_63" class="cls-2" d="M58.34,49.16h-19.22c-.51,.02-.94-.38-.96-.9-.02-.51,.38-.94,.9-.96,.02,0,.04,0,.06,0h19.22c.51,.02,.91,.45,.9,.96-.02,.49-.41,.88-.9,.9Z"/><path id="Path_64" class="cls-2" d="M58.34,41.74h-19.22c-.51,.02-.94-.38-.96-.9s.38-.94,.9-.96c.02,0,.04,0,.06,0h19.22c.51,.02,.91,.45,.9,.96-.02,.49-.41,.88-.9,.9Z"/><path id="Path_65" class="cls-2" d="M58.34,34.33h-19.22c-.51,.02-.94-.38-.96-.9s.38-.94,.9-.96c.02,0,.04,0,.06,0h19.22c.51,.02,.91,.45,.9,.96-.02,.49-.41,.88-.9,.9Z"/><path id="Path_66" class="cls-2" d="M58.34,26.92h-19.22c-.51,.02-.94-.38-.96-.9s.38-.94,.9-.96c.02,0,.04,0,.06,0h19.22c.51,.02,.91,.45,.9,.96-.02,.49-.41,.88-.9,.9Z"/></g></g></svg>