<?xml version="1.0" encoding="UTF-8"?><svg id="Layer_2" xmlns="http://www.w3.org/2000/svg" viewBox="0 0 532.49 65.82"><defs><style>.cls-1{fill:#333;}.cls-2{fill:#8dc63f;}.cls-3{fill:#b3b3b3;}.cls-4{opacity:.6;}</style></defs><g id="button_shape" class="cls-4"><rect class="cls-1" x="0" y="0" width="532.49" height="65.82" rx="32.91" ry="32.91"/></g><g id="text" class="cls-4"><g><path class="cls-3" d="M282.16,39.24v-10.39h-6.54v-2.29h15.88v2.29h-6.39v10.39h-2.95Z"/><path class="cls-3" d="M298.22,39.24c-2.95,0-4.07-1.24-4.07-3.06v-6.55c0-1.82,1.12-3.06,4.07-3.06h8.59c2.95,0,4.07,1.24,4.07,3.06v6.55c0,1.82-1.12,3.06-4.07,3.06h-8.59Zm9.72-9.65c0-.5-.4-.74-1.13-.74h-8.59c-.74,0-1.13,.23-1.13,.74v6.61c0,.52,.4,.74,1.13,.74h8.59c.74,0,1.13-.22,1.13-.74v-6.61Z"/><path class="cls-3" d="M316.9,34.65v4.59h-2.94v-12.68h10.64c2.95,0,4.07,1.24,4.07,3.06v1.96c0,1.82-1.12,3.06-4.07,3.06h-7.71Zm8.84-4.97c0-.49-.29-.83-.86-.83h-7.98v3.49h7.99c.58,0,.85-.27,.85-.74v-1.93Z"/><path class="cls-3" d="M341.22,39.24v-12.68h10.57c2.88,0,3.98,1.04,3.98,2.74v1.15c0,1.22-.59,1.82-1.33,2.11,.77,.2,1.5,.67,1.5,2.05v1.89c0,1.44-.9,2.74-4.11,2.74h-10.61Zm11.6-9.6c0-.61-.29-.79-1.03-.79h-7.63v2.67h7.63c.83,0,1.03-.22,1.03-.92v-.95Zm.18,5.13c0-.68-.34-.95-1.21-.95h-7.63v3.11h7.67c.79,0,1.17-.25,1.17-.9v-1.26Z"/><path class="cls-3" d="M358.97,39.24v-12.68h13.36v2.29h-10.42v2.54h9.87v2.3h-9.87v3.24h10.42v2.3h-13.36Z"/><path class="cls-3" d="M383.14,39.24l-8.46-12.68h3.33l6.27,9.63,6.14-9.63h3.26l-8.39,12.68h-2.14Z"/><path class="cls-3" d="M396.18,39.24v-12.68h13.36v2.29h-10.42v2.54h9.87v2.3h-9.87v3.24h10.42v2.3h-13.36Z"/><path class="cls-3" d="M424.27,39.24l-2.83-5.64h-6.05v5.64h-2.93v-12.68h11.02c2.95,0,4.09,1.24,4.09,3.06v.92c0,1.51-.72,2.72-2.99,3.02l2.84,5.67h-3.15Zm.34-9.65c0-.5-.4-.74-1.13-.74h-8.08v2.47h8.08c.77,0,1.13-.14,1.13-.76v-.97Z"/><path class="cls-3" d="M445.48,39.24l-6.14-9.65-6.27,9.65h-3.28l8.44-12.68h2.16l8.39,12.68h-3.31Z"/><path class="cls-3" d="M454.86,39.24c-2.61,0-4.16-.92-4.16-2.92v-6.59c0-2.25,1.55-3.17,4.16-3.17h10.64v2.29h-10.66c-.92,0-1.21,.34-1.21,.88v6.57c0,.49,.56,.63,1.21,.63h6.72c.65,0,1.19-.13,1.19-.59v-4.02h2.95v4.02c0,2.25-1.31,2.9-4.14,2.9h-6.7Z"/><path class="cls-3" d="M468.71,39.24v-12.68h13.36v2.29h-10.42v2.54h9.87v2.3h-9.87v3.24h10.42v2.3h-13.36Z"/><path class="cls-3" d="M485.26,39.24v-2.3h11.27c.83,0,1.15-.14,1.15-.76v-1.82c0-.58-.34-.77-1.15-.77h-7.58c-2.97,0-4.11-1.24-4.11-3.08v-.86c0-1.84,1.13-3.08,4.11-3.08h10.96v2.29h-10.96c-.77,0-1.17,.2-1.17,.77v.9c0,.54,.34,.77,1.17,.77h7.58c2.97,0,4.11,1.24,4.11,3.08v1.76c0,1.84-1.13,3.1-4.11,3.1h-11.27Z"/></g></g><g id="icon"><g><path id="Path_52" class="cls-2" d="M56.45,33.45c-.15-.3-.45-.48-.78-.48h-5.01v-6.89c0-.48-.39-.87-.87-.87-.28,0-.53,.13-.7,.35l-8.18,10.97c-.29,.39-.21,.93,.18,1.22,.15,.11,.33,.17,.52,.17h5.01v6.82c0,.48,.39,.87,.87,.87,.27,0,.53-.13,.7-.35l8.18-10.9c.2-.26,.23-.62,.08-.91h0Zm-8.09,8.68v-5.08c0-.48-.39-.87-.87-.87h-4.15l5.58-7.47v5.14c0,.48,.39,.87,.87,.87h4.15l-5.57,7.42Z"/><path id="Path_53" class="cls-2" d="M62.98,21.86c0-.12-.02-.23-.07-.34-.21-1.4-.88-2.69-1.91-3.67h.48c.48,0,.87-.39,.87-.87s-.39-.87-.87-.87h-9.15c-.07-.11-.16-.2-.27-.28l-6.62-4.32c-.4-.26-.94-.15-1.2,.25-.26,.4-.15,.94,.25,1.2l4.8,3.14h-13.59c-.48,0-.87,.39-.87,.87s.39,.87,.87,.87h.68c-1.08,1.02-1.76,2.39-1.93,3.87-.03,.24-.04,.48-.04,.73v26.11c0,.24,.01,.48,.04,.73,.37,3.2,3.08,5.62,6.3,5.61h15.88c3.1,0,5.74-2.24,6.25-5.3,.08-.17,.11-.36,.07-.55,.01-.16,.02-.32,.02-.48V22.45c0-.15,0-.29-.01-.43,0-.05,.01-.11,.01-.16Zm-26.81,26.5V22.73h25.07v25.62h-25.07Zm20.47-30.49c1.97,0,3.73,1.26,4.36,3.13h-24.59c.63-1.87,2.38-3.13,4.36-3.13h15.88Zm0,35.3h-15.88c-1.95,0-3.69-1.23-4.34-3.06h24.54c-.65,1.83-2.38,3.06-4.33,3.06Z"/></g></g></svg>