<?xml version="1.0" standalone="no"?>
<!DOCTYPE svg PUBLIC "-//W3C//DTD SVG 20010904//EN"
 "http://www.w3.org/TR/2001/REC-SVG-20010904/DTD/svg10.dtd">
<svg version="1.0" xmlns="http://www.w3.org/2000/svg"
 width="700.000000pt" height="700.000000pt" viewBox="0 0 700.000000 700.000000"
 preserveAspectRatio="xMidYMid meet">
<metadata>
Created by potrace 1.14, written by Peter Selinger 2001-2017
</metadata>
<g transform="translate(0.000000,700.000000) scale(0.100000,-0.100000)"
fill="#000000" stroke="none">
<path d="M3427 6705 c-32 -19 -60 -35 -63 -35 -3 0 -17 -8 -32 -19 -15 -10
-225 -133 -467 -272 -242 -139 -546 -314 -677 -389 -130 -76 -242 -140 -250
-144 -7 -3 -26 -14 -43 -25 -27 -16 -373 -216 -975 -564 -124 -71 -226 -131
-228 -132 -2 -2 -4 -2596 -2 -3160 l0 -90 147 -85 c81 -47 155 -89 164 -95 9
-5 46 -26 81 -46 34 -19 95 -54 135 -77 39 -23 87 -50 105 -61 18 -10 191
-110 383 -221 193 -112 364 -211 380 -220 17 -10 134 -77 260 -150 127 -73
244 -141 260 -150 17 -10 54 -31 83 -49 29 -17 54 -31 56 -31 2 0 33 -17 67
-39 35 -21 188 -109 339 -196 151 -86 291 -168 311 -181 l37 -23 57 35 c32 18
59 34 60 34 1 0 186 106 411 236 225 130 429 248 454 262 25 14 78 45 118 69
41 24 75 43 78 43 3 0 73 42 129 78 11 6 27 15 35 19 8 4 65 36 125 71 61 36
126 74 145 84 89 51 704 406 776 449 45 27 84 49 87 49 3 0 35 18 72 41 37 22
84 50 104 61 20 11 64 37 99 56 l62 36 0 81 c1 97 1 3121 0 3150 0 20 -13 29
-160 112 -34 20 -241 139 -460 266 -58 33 -152 88 -210 122 -58 34 -112 64
-120 68 -8 4 -31 17 -50 28 -41 25 -269 158 -320 187 -72 41 -304 175 -585
337 -159 93 -310 179 -335 193 -25 13 -49 27 -55 32 -31 23 -505 290 -516 290
-8 0 -40 -16 -72 -35z"/>
</g>
</svg>
