<?xml version="1.0" encoding="UTF-8"?><svg id="Layer_2" xmlns="http://www.w3.org/2000/svg" viewBox="0 0 168.42 168.42"><defs><style>.cls-1{fill:#333;opacity:.6;}.cls-2{fill:none;stroke:#666;stroke-linecap:round;stroke-linejoin:round;stroke-width:2px;}</style></defs><g id="Layer_1-2"><circle class="cls-1" cx="84.21" cy="84.21" r="84.21"/><g><polygon class="cls-2" points="86.77 67.45 67.37 93.45 81.32 93.45 81.32 111.69 100.71 85.86 86.77 85.86 86.77 67.45"/><path class="cls-2" d="M103.03,133.73h-37.64c-6.65,0-12.14-5.02-12.87-11.47-.06-.49-.08-.98-.08-1.49V58.87c0-.5,.03-1,.08-1.49,.74-6.46,6.22-11.47,12.87-11.47h37.64c7.16,0,12.96,5.8,12.96,12.96v61.9c0,7.16-5.8,12.96-12.96,12.96Z"/><line class="cls-2" x1="52.6" y1="122.34" x2="115.98" y2="122.34"/><line class="cls-2" x1="52.6" y1="57.47" x2="115.98" y2="57.47"/><line class="cls-2" x1="53.42" y1="45.91" x2="114.5" y2="45.91"/><line class="cls-2" x1="75.38" y1="34.69" x2="91.06" y2="44.92"/></g></g></svg>