<?xml version="1.0" encoding="UTF-8"?><svg id="Layer_2" xmlns="http://www.w3.org/2000/svg" viewBox="0 0 168.42 168.42"><defs><style>.cls-1{fill:#333;opacity:.6;}.cls-2{fill:none;stroke:#666;stroke-linecap:round;stroke-linejoin:round;stroke-width:2px;}</style></defs><g id="Layer_1-2"><circle class="cls-1" cx="84.21" cy="84.21" r="84.21"/><g><g><g><rect class="cls-2" x="111.19" y="78.26" width="8.71" height="16.23" rx="1.74" ry="1.74"/><rect class="cls-2" x="125.09" y="78.26" width="8.71" height="16.23" rx="1.74" ry="1.74"/></g><g><rect class="cls-2" x="116.1" y="105.76" width="12.8" height="12.8"/><line class="cls-2" x1="120.72" y1="110.51" x2="124.28" y2="110.51"/></g><g><rect class="cls-2" x="111.59" y="53.42" width="8.31" height="11.22" rx="1.42" ry="1.42"/><line class="cls-2" x1="114.93" y1="51.05" x2="116.55" y2="52.68"/><rect class="cls-2" x="125.09" y="53.42" width="8.31" height="11.22" rx="1.42" ry="1.42"/><line class="cls-2" x1="128.5" y1="51.05" x2="130.12" y2="52.68"/></g><rect class="cls-2" x="106.36" y="44.75" width="32.28" height="78.91"/><line class="cls-2" x1="106.55" y1="71.01" x2="138.44" y2="71.01"/><line class="cls-2" x1="106.55" y1="100.21" x2="138.44" y2="100.21"/></g><g><g><rect class="cls-2" x="72.9" y="78.26" width="8.71" height="16.23" rx="1.74" ry="1.74"/><rect class="cls-2" x="86.8" y="78.26" width="8.71" height="16.23" rx="1.74" ry="1.74"/></g><g><rect class="cls-2" x="73.3" y="53.42" width="8.31" height="11.22" rx="1.42" ry="1.42"/><line class="cls-2" x1="76.64" y1="51.05" x2="78.26" y2="52.68"/><rect class="cls-2" x="86.8" y="53.42" width="8.31" height="11.22" rx="1.42" ry="1.42"/><line class="cls-2" x1="90.21" y1="51.05" x2="91.83" y2="52.68"/></g><rect class="cls-2" x="68.07" y="44.75" width="32.28" height="78.91"/><line class="cls-2" x1="68.26" y1="71.01" x2="100.15" y2="71.01"/><line class="cls-2" x1="68.26" y1="100.21" x2="100.15" y2="100.21"/></g><g><g><rect class="cls-2" x="35.01" y="53.42" width="8.31" height="11.22" rx="1.42" ry="1.42"/><line class="cls-2" x1="38.35" y1="51.05" x2="39.97" y2="52.68"/><rect class="cls-2" x="48.51" y="53.42" width="8.31" height="11.22" rx="1.42" ry="1.42"/><line class="cls-2" x1="51.92" y1="51.05" x2="53.54" y2="52.68"/></g><rect class="cls-2" x="29.78" y="44.75" width="32.28" height="78.91"/><line class="cls-2" x1="29.97" y1="71.01" x2="61.86" y2="71.01"/><line class="cls-2" x1="29.97" y1="100.21" x2="61.86" y2="100.21"/></g></g></g></svg>